{"title":"The Mummy (1999) 720p Blu-Ray x264 [Dual-Audio] [English 5.1 + H","uid":12138560,"size":1108039185,"categoryP":"video","categoryS":"movies","magnet":"?xt=urn:btih:7dd60a9de1c3d07fcd69c48e3bb0ba4c9111cb75&amp;dn=The+Mummy+%281999%29+720p+Blu-Ray+x264+%5BDual-Audio%5D+%5BEnglish+5.1+%2B+H&amp;tr=udp%3A%2F%2Ftracker.openbittorrent.com%3A80&amp;tr=udp%3A%2F%2Fopen.demonii.com%3A1337&amp;tr=udp%3A%2F%2Ftracker.coppersurfer.tk%3A6969&amp;tr=udp%3A%2F%2Fexodus.desync.com%3A6969","seeders":5,"leechers":5,"uploader":"praneet_gupta777","files":2,"time":1437282349,"description":"[center]\n[b][size=7]The Mummy (1999) 720p Blu-Ray x264 [Dual-Audio] [English 5.1 + Hindi 2.0] Esubs [PKG][/size][/b]\n\n\n\n\n\n[img]http://extraimago.com/images/2015/07/18/url.jpg[/img]\n\n\n[img]http://extraimago.com/images/2015/07/18/Untitled.png[/img]\n\n\n\n\n[img]http://img9.uploadhouse.com/fileuploads/15981/15981250a2a3770f9f004bcdf00afac92833ebdb.png[/img]\n\n\n[quote]\n\n\nGeneral\nUnique ID                   : 237399207366006745472825887015756738924 (0xB2996C99F1A8B30AB78D5F642CC9B16C)\nComplete name               : G:The Mummy (1999) 720p Blu-Ray x264 [Dual-Audio] [English 5.1 + Hindi 2.0] Esubs [PKG]The Mummy (1999) 720p Blu-Ray x264 [Dual-Audio] [English 5.1 + Hindi 2.0] Esubs [PKG].mkv\nFormat                      : Matroska\nFormat version              : Version 4 / Version 2\nFile size                   : 1.03 GiB\nDuration                    : 2h 4mn\nOverall bit rate            : 1 176 Kbps\nMovie name                  : The Mummy (1999) 720p Blu-Ray x264 [Dual-Audio] [English 5.1 + Hindi 2.0] Esubs [PKG]\nEncoded date                : UTC 2015-07-16 12:01:21\nWriting application         : mkvmerge v7.7.0 ('Six Voices') 64bit built on Feb 28 2015 23:39:33\nDURATION                    : 02:04:41.564000000\nNUMBER_OF_FRAMES            : 1070\nNUMBER_OF_BYTES             : 37676\n\nVideo\nID                          : 1\nFormat                      : AVC\nFormat/Info                 : Advanced Video Codec\nFormat profile              : &lt;a class=&quot;__cf_email__&quot; href=&quot;/cdn-cgi/l/email-protection&quot; data-cfemail=&quot;f1b9989699b1bdc5dfc0&quot;&gt;[email&amp;#160;protected]&lt;/a&gt;&lt;script data-cfhash='f9e31' type=&quot;text/javascript&quot;&gt;\n/* &lt;![CDATA[ */!function(){try{var t=&quot;currentScript&quot;in document?document.currentScript:function(){for(var t=document.getElementsByTagName(&quot;script&quot;),e=t.length;e--;)if(t[e].getAttribute(&quot;data-cfhash&quot;))return t[e]}();if(t&amp;&amp;t.previousSibling){var e,r,n,i,c=t.previousSibling,a=c.getAttribute(&quot;data-cfemail&quot;);if(a){for(e=&quot;&quot;,r=parseInt(a.substr(0,2),16),n=2;a.length-n;n+=2)i=parseInt(a.substr(n,2),16)^r,e+=String.fromCharCode(i);e=document.createTextNode(e),c.parentNode.replaceChild(e,c)}t.parentNode.removeChild(t);}}catch(u){}}()/* ]]&gt; */&lt;/script&gt;\nFormat settings, CABAC      : Yes\nFormat settings, ReFrames   : 4 frames\nCodec ID                    : V_MPEG4/ISO/AVC\nDuration                    : 2h 4mn\nBit rate                    : 831 Kbps\nWidth                       : 1 280 pixels\nHeight                      : 544 pixels\nDisplay aspect ratio        : 2.35:1\nFrame rate mode             : Constant\nFrame rate                  : 23.976 fps\nColor space                 : YUV\nChroma subsampling          : 4:2:0\nBit depth                   : 8 bits\nScan type                   : Progressive\nBits/(Pixel*Frame)          : 0.050\nStream size                 : 715 MiB (68%)\nTitle                       : [PKG]\nWriting library             : x264 core 142 r2431 ac76440\nEncoding settings           : cabac=1 / ref=3 / deblock=1:-1:-1 / analyse=0x3:0x113 / me=umh / subme=9 / psy=1 / psy_rd=0.00:0.00 / mixed_ref=1 / me_range=32 / chroma_me=1 / trellis=2 / 8x8dct=1 / cqm=0 / deadzone=21,11 / fast_pskip=0 / chroma_qp_offset=0 / threads=12 / lookahead_threads=1 / sliced_threads=0 / nr=0 / decimate=1 / interlaced=0 / bluray_compat=0 / constrained_intra=0 / bframes=3 / b_pyramid=2 / b_adapt=2 / b_bias=0 / direct=3 / weightb=1 / open_gop=0 / weightp=2 / keyint=250 / keyint_min=25 / scenecut=40 / intra_refresh=0 / rc_lookahead=60 / rc=2pass / mbtree=1 / bitrate=831 / ratetol=1.0 / qcomp=0.60 / qpmin=10 / qpmax=51 / qpstep=4 / cplxblur=20.0 / qblur=0.5 / vbv_maxrate=62500 / vbv_bufsize=78125 / nal_hrd=none / filler=0 / ip_ratio=1.40 / aq=1:1.00\nDefault                     : Yes\nForced                      : No\n\nAudio #1\nID                          : 2\nFormat                      : AC-3\nFormat/Info                 : Audio Coding 3\nMode extension              : CM (complete main)\nFormat settings, Endianness : Big\nCodec ID                    : A_AC3\nDuration                    : 2h 4mn\nBit rate mode               : Constant\nBit rate                    : 192 Kbps\nChannel(s)                  : 2 channels\nChannel positions           : Front: L R\nSampling rate               : 48.0 KHz\nBit depth                   : 16 bits\nCompression mode            : Lossy\nDelay relative to video     : 2s 294ms\nStream size                 : 172 MiB (16%)\nTitle                       : [PKG]\nLanguage                    : Hindi\nDefault                     : Yes\nForced                      : Yes\n\nAudio #2\nID                          : 3\nFormat                      : AC-3\nFormat/Info                 : Audio Coding 3\nMode extension              : CM (complete main)\nFormat settings, Endianness : Big\nCodec ID                    : A_AC3\nDuration                    : 2h 4mn\nBit rate mode               : Constant\nBit rate                    : 160 Kbps\nChannel(s)                  : 6 channels\nChannel positions           : Front: L C R, Side: L R, LFE\nSampling rate               : 48.0 KHz\nBit depth                   : 16 bits\nCompression mode            : Lossy\nStream size                 : 143 MiB (14%)\nTitle                       : [PKG]\nLanguage                    : English\nDefault                     : No\nForced                      : No\n\nText\nID                          : 4\nFormat                      : UTF-8\nCodec ID                    : S_TEXT/UTF8\nCodec ID/Info               : UTF-8 Plain Text\nTitle                       : [PKG]\nLanguage                    : English\nDefault                     : Yes\nForced                      : No\n\n\n[color=navy][size=6][b]SAMPLE WITHIN TORRENT[/b][/size][/color]\n\n\n\n\n\n[img]http://icons.iconarchive.com/icons/tribalmarkings/colorflow/256/screenshots-icon.png[/img]\n\n\n\n[img]http://extraimago.com/images/2015/07/18/vlcsnap-2015-07-18-22h52m19s23.png[/img]\n\n[img]http://extraimago.com/images/2015/07/18/vlcsnap-2015-07-18-22h53m49s148.png[/img]\n\n[img]http://extraimago.com/images/2015/07/18/vlcsnap-2015-07-18-22h50m25s171.png[/img]\n\n[img]http://extraimago.com/images/2015/07/18/vlcsnap-2015-07-18-22h52m45s38.png[/img]\n\n[img]http://extraimago.com/images/2015/07/18/vlcsnap-2015-07-18-22h54m30s59.png[/img]\n\n[img]http://extraimago.com/images/2015/07/18/TheMummy1999720pBlu-Rayx264Dual-AudioEnglish5.1Hindi2.0EsubsPKG.mkv_thumbs_2015.07.18_20.13.55.jpg[/img]\n\n\n[/center]","torrent":{"xt":"urn:btih:7dd60a9de1c3d07fcd69c48e3bb0ba4c9111cb75","amp;dn":"The+Mummy+%281999%29+720p+Blu-Ray+x264+%5BDual-Audio%5D+%5BEnglish+5.1+%2B+H","amp;tr":["udp%3A%2F%2Ftracker.openbittorrent.com%3A80","udp%3A%2F%2Fopen.demonii.com%3A1337","udp%3A%2F%2Ftracker.coppersurfer.tk%3A6969","udp%3A%2F%2Fexodus.desync.com%3A6969"],"infoHash":"7dd60a9de1c3d07fcd69c48e3bb0ba4c9111cb75","infoHashBuffer":{"type":"Buffer","data":[125,214,10,157,225,195,208,127,205,105,196,142,59,176,186,76,145,17,203,117]},"announce":[],"urlList":[]}}